<svg xmlns="http://www.w3.org/2000/svg" width="66" height="66" viewBox="0 0 66 66" shape-rendering="crispEdges">
<rect x="30" y="0" width="6" height="6" fill="#2B2B2B"/>
<rect x="36" y="0" width="6" height="6" fill="#2B2B2B"/>
<rect x="24" y="6" width="6" height="6" fill="#2B2B2B"/>
<rect x="30" y="6" width="6" height="6" fill="#F5F5F5"/>
<rect x="36" y="6" width="6" height="6" fill="#F5F5F5"/>
<rect x="42" y="6" width="6" height="6" fill="#2B2B2B"/>
<rect x="18" y="12" width="6" height="6" fill="#2B2B2B"/>
<rect x="24" y="12" width="6" height="6" fill="#F5F5F5"/>
<rect x="30" y="12" width="6" height="6" fill="#F5F5F5"/>
<rect x="36" y="12" width="6" height="6" fill="#F5F5F5"/>
<rect x="42" y="12" width="6" height="6" fill="#F5F5F5"/>
<rect x="48" y="12" width="6" height="6" fill="#2B2B2B"/>
<rect x="18" y="18" width="6" height="6" fill="#2B2B2B"/>
<rect x="24" y="18" width="6" height="6" fill="#F5F5F5"/>
<rect x="30" y="18" width="6" height="6" fill="#E86A3B"/>
<rect x="36" y="18" width="6" height="6" fill="#F5F5F5"/>
<rect x="42" y="18" width="6" height="6" fill="#E86A3B"/>
<rect x="48" y="18" width="6" height="6" fill="#2B2B2B"/>
<rect x="18" y="24" width="6" height="6" fill="#2B2B2B"/>
<rect x="24" y="24" width="6" height="6" fill="#F5F5F5"/>
<rect x="30" y="24" width="6" height="6" fill="#F5F5F5"/>
<rect x="36" y="24" width="6" height="6" fill="#F5F5F5"/>
<rect x="42" y="24" width="6" height="6" fill="#F5F5F5"/>
<rect x="48" y="24" width="6" height="6" fill="#2B2B2B"/>
<rect x="24" y="30" width="6" height="6" fill="#2B2B2B"/>
<rect x="30" y="30" width="6" height="6" fill="#F5F5F5"/>
<rect x="36" y="30" width="6" height="6" fill="#F5F5F5"/>
<rect x="42" y="30" width="6" height="6" fill="#2B2B2B"/>
<rect x="30" y="36" width="6" height="6" fill="#2B2B2B"/>
<rect x="36" y="36" width="6" height="6" fill="#2B2B2B"/>
<rect x="24" y="42" width="6" height="6" fill="#2B2B2B"/>
<rect x="30" y="42" width="6" height="6" fill="#D9534F"/>
<rect x="36" y="42" width="6" height="6" fill="#D9534F"/>
<rect x="42" y="42" width="6" height="6" fill="#2B2B2B"/>
<rect x="24" y="48" width="6" height="6" fill="#2B2B2B"/>
<rect x="30" y="48" width="6" height="6" fill="#D9534F"/>
<rect x="36" y="48" width="6" height="6" fill="#D9534F"/>
<rect x="42" y="48" width="6" height="6" fill="#2B2B2B"/>
<rect x="30" y="54" width="6" height="6" fill="#2B2B2B"/>
<rect x="36" y="54" width="6" height="6" fill="#2B2B2B"/>
<rect x="24" y="60" width="6" height="6" fill="#2B2B2B"/>
<rect x="30" y="60" width="6" height="6" fill="#F4D03F"/>
<rect x="36" y="60" width="6" height="6" fill="#F4D03F"/>
<rect x="42" y="60" width="6" height="6" fill="#2B2B2B"/>
</svg>